<svg xmlns="http://www.w3.org/2000/svg" viewBox="0 0 1279 50.776">
    <defs>
        <linearGradient id="prefix__linear-gradient" x1=".299" x2=".779" y1=".678" y2=".686" gradientUnits="objectBoundingBox">
            <stop offset="0" stop-color="#13d1f3"/>
            <stop offset="1" stop-color="#35d6c1"/>
        </linearGradient>
    </defs>
    <g id="prefix__img_beat" transform="translate(-.5 -5940)">
        <g id="prefix__Page-1" transform="translate(592 5940)">
            <path id="prefix__Path" d="M82.895 34.287l-6.754-.132-6.3-.1-2.114-11.962-2.233-12.378a.892.892 0 0 0-1.037-.722.9.9 0 0 0-.731.761v.023l-1.308 9.949-2.561 19.9-.073.557-.984-7.016q-1.143-8.193-2.332-16.376a1.408 1.408 0 0 0-2.771-.09v.007l-3.04 14.55L46.9 1.443V1.43a1.382 1.382 0 0 0-2.745.031l-2.261 21.918-1.117 10.959-.377 3.791-1.072-5.3-2.54-12.379v-.019a.806.806 0 0 0-1.556-.089l-2.3 7.022-2.144 6.631-14.971.285-7.7.17-7.7.192 7.705.163 7.7.143 15.407.235a.58.58 0 0 0 .56-.386l.008-.018 2.493-6.954 1.44-4.075 1.7 9.444 2.27 12.431a1.084 1.084 0 0 0 2.144-.066v-.02L43.136 34.6 44.4 23.652l1.174-10.282 3.289 26.87a1.451 1.451 0 0 0 2.861.114l3.123-15.247q.629 4.227 1.273 8.451l2.48 16.356.005.014a1.261 1.261 0 0 0 2.5-.048l1.125-9.97 2.2-19.945.465-4.3 1.382 6.707 2.579 12.311.005.018a.53.53 0 0 0 .53.422l6.752-.113 6.754-.128c4.5-.079 9.009-.2 13.51-.3-4.507-.097-9.007-.217-13.512-.295z" transform="translate(-.405 -.224)"/>
        </g>
        <path id="prefix__Line_97" d="M613 0L0 0" data-name="Line 97" transform="translate(666.5 5974.25)" />
        <path id="prefix__Line_98" d="M614 0L0 0" data-name="Line 98" transform="translate(.5 5974.25)" />
    </g>
</svg>
