<?xml version="1.0" encoding="utf-8"?>

<!-- Generator: Adobe Illustrator 23.0.2, SVG Export Plug-In . SVG Version: 6.00 Build 0)  -->
<svg version="1.1" id="Layer_1" 
	xmlns="http://www.w3.org/2000/svg" 
	xmlns:xlink="http://www.w3.org/1999/xlink" x="0px" y="0px" viewBox="0 0 341.1 186.8" style="enable-background:new 0 0 341.1 186.8;" xml:space="preserve">
	<style>
		.st0{
			fill:red
		}
	</style>
	<title>Logo - Solo [Monochrome]</title>
	<path class="st0" d="M89.6,0c0.9,0.1,1.8,0.2,2.8,0.3c12.1,0.9,23.8,4.9,33.9,11.6c17.1,11.4,27.9,27.2,32.2,47.3
	c4.5,21.4,0.4,41.3-11.9,59.5c-0.1,0.2-0.2,0.3-0.3,0.4c0,0.1-0.1,0.1-0.1,0.2c0.1,0,0.3,0,0.4-0.1c8.2-2.2,16.3-4.9,24.2-8
	c6.4-2.6,12.6-5.6,18.7-8.7c18.2-9.2,35.4-20,51.6-32.4c6-4.6,12.3-8.9,18-13.9c1.5-1.3,3-2.6,4.5-3.9c8.2-7.2,17.3-13.2,27.2-17.9
	c4.5-2.2,9.3-3.6,14.3-4.1c6.9-0.6,13.1,1.1,18.4,5.7c3.7,3.3,4.9,7.4,4,12.2c-0.8,4.3-3.1,7.6-6,10.7c-0.4,0.4-0.8,0.8-1.3,1.3
	l-0.6-0.7c-3-3.7-7.2-6.2-11.9-7.1c-3.7-0.5-7.5-0.3-11.1,0.8c-3.8,1.1-7.5,2.7-11,4.7c-5.6,3.1-10.9,6.7-15.9,10.7
	c-8.1,6.5-16.1,13.2-24.1,19.7c-7,5.8-14.6,10.9-22.1,16c-3.4,2.3-6.7,4.7-10.1,6.8c-8.3,5.5-17,10.3-26,14.6
	c-17.9,8.2-36.5,14.6-55.6,19.2c-7,1.7-14.1,3-21.3,3.9c-7.2,1-14.6,1.2-21.8,0.8c-18.7-1.2-35.7-7.2-50.4-19
	c-10-7.8-17.8-18.2-22.6-30c-3.3-8-4.8-16.7-4.6-25.4C11.3,51.9,22.3,30.1,40.9,16c9-7.1,19.4-12,30.6-14.4c3.6-0.8,7.3-1.3,11-1.4
	c0.3,0,0.6-0.1,0.9-0.1L89.6,0z M87.7,128.7c3.1-0.1,6.2-0.2,9.3-0.4c6.2-0.4,12.5-1.1,18.6-2.1c8.7-1.4,17.3-3.3,25.7-5.6
	c0.4-0.1,0.7-0.4,1-0.7c11.7-16.6,16.1-34.9,13.3-55c-1.3-8.9-4.2-17.5-8.6-25.3C134.5,16.6,110.3,2.4,84,2.4
	c-2.3,0-4.6,0.1-6.9,0.4c-4.7,0.8-9.3,2.1-13.7,4.1c-10.2,4.5-19.1,11.4-26.2,19.9c-6.7,7.9-11.8,17-14.9,26.9
	c-3.2,10.1-4.2,20.3-2.1,30.8c1.6,8.2,5.3,15.9,10.7,22.2c8.2,9.5,18.5,15.6,30.6,18.8C70.1,127.7,78.9,128.7,87.7,128.7z"/>
	<path class="st0" d="M0,69.5c0.1-1.5,0.3-3,0.4-4.5C1.3,55.5,3.9,46.3,8,37.8c1.7-3.7,3.8-7.3,6-10.7c0.2-0.3,0.4-0.6,0.7-0.8
	l-0.3,0.5C8.8,35.5,4.8,45.1,2.7,55.2c-1.4,6.7-2,13.6-1.6,20.5c0.7,13.7,4.9,27,12.2,38.6c5.5,8.8,12.5,16.5,20.8,22.8
	c10.5,8.3,22.7,14.2,35.7,17.4c9.1,2.2,18.5,3,27.9,2.5c7.4-0.3,14.8-0.9,22.3-1.5c15.6-1.2,30.6-5.1,45.4-9.6
	c22.2-6.8,42.9-16.9,62.7-28.8c9.6-5.8,18.9-12.2,28-18.9c4.7-3.5,9.4-6.9,14.1-10.4c1.7-1.3,3.3-2.8,5-4.1c2.2-1.7,4.4-3.5,6.7-5.1
	c5.4-3.9,11.2-7.4,17.2-10.4c4.9-2.5,10.2-4.2,15.6-5c6.5-0.8,12.6,0.3,18,4.3c3,2.3,5.2,5.4,6.3,8.9c1.7,4.8,2.5,10,2.3,15.1
	c0,9.6-2.5,19.1-7.2,27.5c-5.3,9.6-12,18.3-20,25.8c-8.6,8.2-18.2,15.3-28.6,21.1c-14.2,8.1-29.5,14-45.4,17.6
	c-10.7,2.4-21.6,3.5-32.5,3.3c-10.4-0.1-20.8-2-30.5-5.7c-6.2-2.3-12-5.7-17-10c-0.1-0.1-0.2-0.2-0.4-0.4l1.5-0.4
	c8.5-2.3,16.8-5,25-8.2c0.3-0.1,0.7-0.1,1,0c6,3.9,12.7,6.6,19.7,7.9c8,1.6,16.3,2.1,24.4,1.4c16.2-1.3,32-5.7,46.5-13
	c12.2-5.8,23.3-13.7,32.8-23.3c6-6,11.1-13,14.8-20.7c2.1-4.1,3.5-8.6,4.2-13.2c0.5-2.8,0.3-5.7-0.5-8.4c-1.2-3.6-4.2-6.3-7.9-7.1
	c-4.6-1.1-9.5-1-14.1,0.3c-4.7,1.3-9.2,3.3-13.4,5.8c-4.5,2.6-8.9,5.5-13.1,8.7c-2.9,2.2-5.7,4.6-8.5,6.8c-6,4.7-12.1,9.4-18.1,14
	c-7.3,5.5-15,10.5-22.7,15.4l-3.9,2.5c-7.9,5.3-16.2,9.9-24.8,14c-14.8,7-30.2,12.5-46.1,16.4c-6.4,1.5-12.9,2.8-19.5,3.7
	c-0.4,0.1-0.8-0.1-1-0.5c-1.1-2-2.3-3.9-3.7-5.7c-2.3-2.9-5.5-4.5-9.1-5.5c-3.8-1.1-7.7-1.7-11.6-1.9c-6.5-0.3-13-0.6-19.5-0.9
	c-7.3-0.2-14.7-1.1-21.8-2.8c-10.8-2.7-21-7.2-30.3-13.2c-10.8-6.9-20-16.1-27-26.8c-6-9.2-10-19.6-11.7-30.4c-0.5-3-0.7-6-1-9
	C0.1,76.5,0,76.3,0,76L0,69.5z"/>
</svg>
